<svg width="100%" height="100%" viewBox="0 0 11 12" version="1.1" xmlns="http://www.w3.org/2000/svg" xmlns:xlink="http://www.w3.org/1999/xlink" id="user" fit="" preserveAspectRatio="xMidYMid meet" focusable="false">
    <g id="Home" stroke="none" stroke-width="1" fill="none" fill-rule="evenodd">
        <g id="Outline" transform="translate(-433.000000, -384.000000)" fill="#263A48">
            <path d="M435.8242,387.6394 C435.8242,389.0054 436.8782,390.0874 438.2402,390.0874 C439.5992,390.0874 440.6562,389.0074 440.6562,387.6394 C440.6562,386.2674 439.5942,385.1924 438.2402,385.1924 C436.8862,385.1924 435.8242,386.2674 435.8242,387.6394 L435.8242,387.6394 Z M435.1202,387.6394 C435.1202,385.9374 436.4942,384.5204 438.2402,384.5204 C439.9532,384.5204 441.3602,385.9034 441.3602,387.6394 C441.3602,389.3544 439.9722,390.7594 438.2402,390.7594 C436.5222,390.7594 435.1202,389.3684 435.1202,387.6394 L435.1202,387.6394 Z M438.2402,392.2474 C435.9712,392.2474 434.1062,393.0604 433.8882,395.2874 L442.5922,395.2874 C442.3752,393.0594 440.5072,392.2474 438.2402,392.2474 L438.2402,392.2474 Z M433.0562,395.9594 L433.1042,395.4484 C433.3622,392.6794 435.4462,391.5764 438.2402,391.5764 C441.0272,391.5764 443.1172,392.6734 443.3762,395.4484 L443.4242,395.9594 L433.0562,395.9594 Z" id="User"></path>
        </g>
    </g>
</svg>